<?xml version="1.0" encoding="iso-8859-1"?>
<!-- Generator: Adobe Illustrator 19.0.0, SVG Export Plug-In . SVG Version: 6.00 Build 0)  -->
<svg version="1.1" id="Capa_1" xmlns="http://www.w3.org/2000/svg" xmlns:xlink="http://www.w3.org/1999/xlink" x="0px" y="0px"
	 viewBox="0 0 512 512" style="enable-background:new 0 0 512 512;" xml:space="preserve">
<g>
	<g>
		<path d="M287.775,82.315h-131.37c-4.34,0-7.857,3.517-7.857,7.857s3.517,7.857,7.857,7.857h131.37c4.34,0,7.857-3.517,7.857-7.857
			S292.115,82.315,287.775,82.315z"/>
	</g>
</g>
<g>
	<g>
		<circle cx="47.27" cy="90.17" r="9.44"/>
	</g>
</g>
<g>
	<g>
		<circle cx="83.65" cy="90.17" r="9.44"/>
	</g>
</g>
<g>
	<g>
		<circle cx="118" cy="90.17" r="9.44"/>
	</g>
</g>
<g>
	<g>
		<circle cx="412.07" cy="90.17" r="9.44"/>
	</g>
</g>
<g>
	<g>
		<path d="M470.169,170.157h-11.842V83.628c0-20.784-16.91-37.693-37.694-37.693H37.694C16.91,45.935,0,62.844,0,83.628v179.148
			v59.366v65.605c0,20.784,16.91,37.693,37.694,37.693h61.703h62.08h35.048c4.34,0,7.857-3.517,7.857-7.857
			c0-4.34-3.517-7.857-7.857-7.857h-23.664c1.429-3.282,2.725-6.618,3.852-10.005l8.722-1.09
			c10.801-1.348,18.947-10.574,18.947-21.46v-30.876c0-10.873-8.135-20.098-18.923-21.457l-8.703-1.097
			c-1.837-5.549-4.088-10.975-6.724-16.218l5.391-6.931c6.682-8.592,5.918-20.875-1.778-28.572l-21.832-21.832
			c-7.689-7.689-19.964-8.461-28.554-1.792l-6.959,5.401c-5.201-2.615-10.579-4.849-16.077-6.677l-1.09-8.721
			c-1.348-10.801-10.574-18.947-21.46-18.947H46.797c-10.872,0-20.097,8.134-21.458,18.923l-1.097,8.704
			c-2.877,0.954-5.721,2.026-8.528,3.201V133.397h27.767c4.34,0,7.857-3.517,7.857-7.857c0-4.34-3.517-7.857-7.857-7.857H15.714
			V83.628c0-12.119,9.86-21.979,21.98-21.979h382.94c12.12,0,21.98,9.86,21.98,21.979v34.055H83.652
			c-4.34,0-7.857,3.517-7.857,7.857c0,4.34,3.517,7.857,7.857,7.857h358.962v36.76H263.138c-23.065,0-41.831,18.766-41.831,41.831
			v212.245c0,23.066,18.766,41.832,41.831,41.832h207.031c23.065,0,41.831-18.766,41.831-41.832V211.988
			C512,188.922,493.234,170.157,470.169,170.157z M96.89,409.726H37.694c-12.12,0.001-21.98-9.859-21.98-21.978v-62.921
			c11.219-14.113,28.392-22.484,46.453-22.484c32.711,0,59.322,26.611,59.322,59.322C121.489,380.776,112.324,398.562,96.89,409.726
			z M33.541,260.657c3.035-0.858,5.263-3.449,5.657-6.578l1.731-13.739c0.371-2.949,2.894-5.175,5.867-5.175h30.876
			c2.976,0,5.499,2.226,5.867,5.18l1.72,13.76c0.392,3.13,2.616,5.723,5.65,6.584c7.747,2.201,15.272,5.325,22.364,9.287
			c2.754,1.537,6.158,1.281,8.65-0.653l10.97-8.514c2.348-1.822,5.705-1.611,7.807,0.491l21.832,21.832
			c2.105,2.104,2.314,5.463,0.487,7.813l-8.513,10.943c-1.939,2.491-2.196,5.901-0.657,8.657c3.983,7.126,7.12,14.694,9.326,22.495
			c0.858,3.035,3.449,5.262,6.578,5.657l13.74,1.732c2.949,0.371,5.174,2.893,5.174,5.866v30.876c0,2.976-2.226,5.499-5.18,5.867
			l-13.76,1.72c-3.129,0.392-5.722,2.616-6.584,5.649c-1.889,6.65-4.457,13.134-7.65,19.319h-35.697
			c11.121-13.319,17.406-30.241,17.406-48.061c0-41.375-33.661-75.036-75.036-75.036c-16.977,0-33.344,5.832-46.453,16.152v-35.247
			C21.459,264.69,27.438,262.383,33.541,260.657z M496.286,424.233c0,14.401-11.716,26.118-26.117,26.118H263.138
			c-14.401,0-26.117-11.717-26.117-26.118V211.988c0-14.401,11.716-26.117,26.117-26.117h207.031
			c14.401,0,26.117,11.716,26.117,26.117V424.233z"/>
	</g>
</g>
<g>
	<g>
		<path d="M473.146,391.947l-39.882-39.88c-7.064-7.063-17.588-8.566-26.154-4.563l-13.451-13.451
			c22.867-28.427,21.124-70.236-5.25-96.61c-3.069-3.067-8.043-3.067-11.112,0c-3.068,3.069-3.068,8.043,0,11.112
			c10.718,10.717,16.62,24.967,16.62,40.124c0,14.709-5.572,28.553-15.695,39.154c-0.362,0.255-0.711,0.537-1.035,0.861
			c-0.322,0.322-0.603,0.669-0.857,1.029c-22.193,21.185-57.473,20.889-79.282-0.92c-10.717-10.717-16.62-24.967-16.62-40.125
			c0-15.156,5.903-29.406,16.621-40.124c15.147-15.149,37.234-20.462,57.634-13.865c4.132,1.331,8.559-0.931,9.894-5.06
			c1.334-4.128-0.931-8.558-5.059-9.893c-26.048-8.422-54.239-1.635-73.58,17.706c-13.686,13.686-21.224,31.882-21.224,51.236
			c0,19.355,7.538,37.551,21.223,51.237c14.128,14.127,32.679,21.189,51.236,21.188c16.086-0.002,32.172-5.321,45.374-15.939
			l13.451,13.451c-4.004,8.567-2.5,19.091,4.563,26.156l39.881,39.881c2.675,2.674,6.187,4.011,9.7,4.011
			c3.512,0,7.025-1.338,9.698-4.011l13.305-13.304h0.001C478.494,405.999,478.494,397.297,473.146,391.947z M450.142,412.129
			l-38.469-38.469c-1.401-1.4-2.171-3.26-2.171-5.24s0.77-3.84,2.171-5.24c1.4-1.401,3.26-2.171,5.24-2.171
			c1.979,0,3.839,0.77,5.239,2.171l38.471,38.469L450.142,412.129z"/>
	</g>
</g>
<g>
</g>
<g>
</g>
<g>
</g>
<g>
</g>
<g>
</g>
<g>
</g>
<g>
</g>
<g>
</g>
<g>
</g>
<g>
</g>
<g>
</g>
<g>
</g>
<g>
</g>
<g>
</g>
<g>
</g>
</svg>
