<svg xmlns="http://www.w3.org/2000/svg" viewBox="0 0 217.26 268.33">
  <defs>
    <style>
      .cls-1 {
        opacity: 0.1;
      }

      .cls-2 {
        fill: #4b7dba;
      }
    </style>
  </defs>
          <path class="cls-2" d="M164.83,33.23A126,126,0,0,0,122.29,26a120.8,120.8,0,0,0-42.37,7.48Q34.31-5.55,29.56.92t-.13,67.74a126,126,0,0,0-19.92,32A117.31,117.31,0,0,0,0,147.57a.22.22,0,0,0,.25.25v.25a.22.22,0,0,0-.25.25v.25a117.33,117.33,0,0,0,36,85A119.62,119.62,0,0,0,75.1,259.2a123.42,123.42,0,0,0,47.19,9.13A125.06,125.06,0,0,0,168,260a101.61,101.61,0,0,0,36.79-24.1q8.88-8.88,9.39-20A23.65,23.65,0,0,0,206,197.55q-8.37-7.36-17.51-7.36a23.18,23.18,0,0,0-11,2.92,78.59,78.59,0,0,0-11.54,7.74,64.24,64.24,0,0,1-22.71,13.07,75.71,75.71,0,0,1-25.5,3.17,61.51,61.51,0,0,1-26-6.09,68.37,68.37,0,0,1-21.18-16A71.46,71.46,0,0,1,56.7,173.06a67.1,67.1,0,0,1-4.95-25.24l-.25-.25.25-.51a68.07,68.07,0,0,1,4.95-25.37,71.94,71.94,0,0,1,36-38.44,61.07,61.07,0,0,1,26.51-6,77.36,77.36,0,0,1,24.61,3.81,70.65,70.65,0,0,1,22.07,12.43,83.21,83.21,0,0,0,11.67,7.86,23.58,23.58,0,0,0,11.42,3q8.63,0,17-7.36a23.9,23.9,0,0,0,8-15.69l.85-11q4.82-62.92,0-69.52T164.83,33.23Z"/>
</svg>
