<svg xmlns="http://www.w3.org/2000/svg" viewBox="0 0 365.82 77.52"><defs><style>.cls-1{fill:#4b7dba;}</style></defs><title>logo webcat</title><g><path class="cls-1" d="M364.11,22.08a5.87,5.87,0,0,0-4.29-1.68h-5.16V5.88A5.65,5.65,0,0,0,353,1.68,5.8,5.8,0,0,0,348.72,0a5.9,5.9,0,0,0-4.26,1.68,5.6,5.6,0,0,0-1.74,4.2V20.4H338.4a5.9,5.9,0,0,0-4.26,1.68,5.6,5.6,0,0,0-1.74,4.2,6.09,6.09,0,0,0,1.8,4.26,5.51,5.51,0,0,0,4.2,1.8h4.32V70.92a5.6,5.6,0,0,0,1.74,4.2,5.9,5.9,0,0,0,4.26,1.68A5.8,5.8,0,0,0,353,75.12a5.65,5.65,0,0,0,1.71-4.2V32.34h5.16a5.77,5.77,0,0,0,4.29-1.74,5.92,5.92,0,0,0,1.71-4.32A5.65,5.65,0,0,0,364.11,22.08ZM324.28,37.71a28.88,28.88,0,0,0-6.18-9.15A28.54,28.54,0,0,0,287,22.5a29,29,0,0,0-15.39,15.39,28.77,28.77,0,0,0,0,22A29,29,0,0,0,287,75.3a27.92,27.92,0,0,0,11,2.22,25.83,25.83,0,0,0,16.62-6.18,6.1,6.1,0,0,0,1.86,3.9,5.49,5.49,0,0,0,4,1.56,6.34,6.34,0,0,0,2.43-.48,5.43,5.43,0,0,0,2-1.32,6.13,6.13,0,0,0,1.74-4.32v-22A28.32,28.32,0,0,0,324.28,37.71ZM313.36,55.29a16.26,16.26,0,0,1-3.54,5.31,17,17,0,0,1-5.34,3.6A16.19,16.19,0,0,1,298,65.52a15.83,15.83,0,0,1-6.39-1.32,17,17,0,0,1-8.91-8.91,15.83,15.83,0,0,1-1.32-6.39,16.14,16.14,0,0,1,1.29-6.39,16.88,16.88,0,0,1,3.63-5.37,16.26,16.26,0,0,1,5.31-3.54A16.48,16.48,0,0,1,298,32.34a16.85,16.85,0,0,1,6.48,1.26,16.2,16.2,0,0,1,8.88,8.85,17,17,0,0,1,0,12.84ZM200.23,37.83a28.44,28.44,0,0,0-26.37-17.55,27.61,27.61,0,0,0-8.79,1.41,30.2,30.2,0,0,0-7.89,4V5.88a5.6,5.6,0,0,0-1.74-4.2A5.9,5.9,0,0,0,151.18,0,5.8,5.8,0,0,0,147,1.68a5.65,5.65,0,0,0-1.71,4.2v43c0,5.41.93,9.28,2.16,11.6s3.2,7.28,9.66,11.5a29,29,0,0,0,8,4,28.52,28.52,0,0,0,19.89-.81,28.79,28.79,0,0,0,9.18-6.18,28.47,28.47,0,0,0,6.15-9.15,28,28,0,0,0,2.19-11A28.47,28.47,0,0,0,200.23,37.83Zm-11,17.46a16.26,16.26,0,0,1-3.54,5.31,16.69,16.69,0,0,1-11.82,4.86,16.29,16.29,0,0,1-6.45-1.29,16.66,16.66,0,0,1-5.31-3.57,17.08,17.08,0,0,1-3.6-5.31,15.83,15.83,0,0,1-1.32-6.39,16.14,16.14,0,0,1,1.29-6.39,16.88,16.88,0,0,1,3.63-5.37,16.18,16.18,0,0,1,5.34-3.54,17.14,17.14,0,0,1,12.9,0,16.2,16.2,0,0,1,8.88,8.85,17,17,0,0,1,0,12.84ZM225,42.78a17,17,0,0,1,8.52-9.09,14.44,14.44,0,0,1,6.27-1.41,18.29,18.29,0,0,1,5.82.9,16.71,16.71,0,0,1,5.22,2.94A19.68,19.68,0,0,0,253.58,38a5.58,5.58,0,0,0,2.7.72,6.09,6.09,0,0,0,4-1.74,5.65,5.65,0,0,0,1.89-3.71l.2-2.59q1.14-14.88,0-16.44t-11.83,7.64a29.81,29.81,0,0,0-10.06-1.7,28.57,28.57,0,0,0-10,1.77q-10.79-9.24-11.91-7.71t0,16a29.8,29.8,0,0,0-4.71,7.56,27.74,27.74,0,0,0-2.25,11.1.05.05,0,0,0,.06.06V49a.05.05,0,0,0-.06.06v.06a27.75,27.75,0,0,0,8.52,20.1,28.29,28.29,0,0,0,9.24,6.06,29.19,29.19,0,0,0,11.16,2.16,29.58,29.58,0,0,0,10.8-2,24,24,0,0,0,8.7-5.7A7,7,0,0,0,262.22,65a5.59,5.59,0,0,0-1.92-4.32A6.22,6.22,0,0,0,256.16,59a5.48,5.48,0,0,0-2.61.69,18.59,18.59,0,0,0-2.73,1.83,15.19,15.19,0,0,1-5.37,3.09,17.91,17.91,0,0,1-6,.75,14.55,14.55,0,0,1-6.15-1.44,16.17,16.17,0,0,1-5-3.78A16.9,16.9,0,0,1,225,54.93a15.87,15.87,0,0,1-1.17-6l-.06-.06.06-.12A16.1,16.1,0,0,1,225,42.78Zm-90.76-5.13A28.12,28.12,0,0,0,128,28.56a29.68,29.68,0,0,0-9.21-6.09,27.88,27.88,0,0,0-11-2.19,28.25,28.25,0,0,0-11,2.19,29.07,29.07,0,0,0-9.24,6.15A28.38,28.38,0,0,0,79.06,48.9a27.92,27.92,0,0,0,2.22,11,28.32,28.32,0,0,0,6.24,9.18,29.07,29.07,0,0,0,9.24,6.15,28.25,28.25,0,0,0,11,2.19A30.09,30.09,0,0,0,119,75.54,23.28,23.28,0,0,0,126.1,71a5.63,5.63,0,0,0,2.28-4.5,6,6,0,0,0-1-3.36,5.43,5.43,0,0,0-2.88-2.52,5.59,5.59,0,0,0-2-.36,6.37,6.37,0,0,0-4,1.5Q114.7,66,107.8,66a16.4,16.4,0,0,1-5.22-.84A14.79,14.79,0,0,1,98,62.7,15.93,15.93,0,0,1,94.51,59a16.15,16.15,0,0,1-2.19-4.68h38.34a5.84,5.84,0,0,0,4.23-1.59,5.45,5.45,0,0,0,1.65-4.11A28,28,0,0,0,134.23,37.65ZM92,44.34a15.93,15.93,0,0,1,2-5,16.7,16.7,0,0,1,3.54-4A16.07,16.07,0,0,1,108,31.68a17.2,17.2,0,0,1,5.64.93,16.77,16.77,0,0,1,4.92,2.67,16.22,16.22,0,0,1,3.57,4,16.53,16.53,0,0,1,2.13,5.07ZM76.38,24.18a6.07,6.07,0,0,0-3.18-3.36,5.94,5.94,0,0,0-2.46-.54,5.61,5.61,0,0,0-3.18,1,6.26,6.26,0,0,0-2.22,2.64L50.58,57.36l-7.32-21c-2.22-4.62-7.78-4.47-9.32,0q0,.06-7.72,21L11.4,23.88a7,7,0,0,0-1.38-2,5.63,5.63,0,0,0-4.14-1.68,5.54,5.54,0,0,0-2.28.51,6.07,6.07,0,0,0-2,1.41A6.16,6.16,0,0,0,0,26.4a5.68,5.68,0,0,0,.54,2.34L20.76,73.2a5.26,5.26,0,0,0,1.14,1.74,5.72,5.72,0,0,0,3.9,1.86h.9a5.53,5.53,0,0,0,2-.54l.81-.48a3.53,3.53,0,0,0,1-.9,7.34,7.34,0,0,0,1.14-1.68L38.4,57.36,45.12,73.2A5.09,5.09,0,0,0,46.38,75a5,5,0,0,0,1.8,1.32,5.41,5.41,0,0,0,2.22.48h.66a5.44,5.44,0,0,0,3.12-1.2,7.46,7.46,0,0,0,1.92-2.4L76.26,28.8a5.68,5.68,0,0,0,.54-2.34A5.94,5.94,0,0,0,76.38,24.18Z"/></g></svg>
